<svg width="32" height="32" viewBox="0 0 32 32" fill="none" xmlns="http://www.w3.org/2000/svg">
<path d="M27 4H5C2.79086 4 1 5.79086 1 8V24C1 26.2091 2.79086 28 5 28H27C29.2091 28 31 26.2091 31 24V8C31 5.79086 29.2091 4 27 4Z" fill="white"/>
<path d="M1.63794 5.846H30.3619C29.6509 4.738 28.4149 4 26.9999 4H4.99994C3.58594 4 2.34994 4.738 1.63794 5.846Z" fill="#A62842"/>
<path d="M2.03 7.692C2.022 7.795 2 7.894 2 8V9.539H31V8C31 7.895 30.978 7.796 30.97 7.692H2.03Z" fill="#A62842"/>
<path d="M2 11.385H31V13.231H2V11.385Z" fill="#A62842"/>
<path d="M2 15.077H31V16.923H2V15.077Z" fill="#A62842"/>
<path d="M1 18.769H31V20.615H1V18.769Z" fill="#A62842"/>
<path d="M1 24C1 24.105 1.023 24.204 1.031 24.308H30.969C30.977 24.205 31 24.106 31 24V22.461H1V24Z" fill="#A62842"/>
<path d="M30.3619 26.154H1.63794C2.34894 27.262 3.58494 28 4.99994 28H26.9999C28.4139 28 29.6499 27.262 30.3619 26.154Z" fill="#A62842"/>
<path d="M5 4H16V16.923H1V8C1 5.792 2.792 4 5 4Z" fill="#102D5E"/>
<path opacity="0.15" d="M27 4H5C2.791 4 1 5.791 1 8V24C1 26.209 2.791 28 5 28H27C29.209 28 31 26.209 31 24V8C31 5.791 29.209 4 27 4ZM30 24C30 25.654 28.654 27 27 27H5C3.346 27 2 25.654 2 24V8C2 6.346 3.346 5 5 5H27C28.654 5 30 6.346 30 8V24Z" fill="black"/>
<path opacity="0.2" d="M27 5H5C3.343 5 2 6.343 2 8V9C2 7.343 3.343 6 5 6H27C28.657 6 30 7.343 30 9V8C30 6.343 28.657 5 27 5Z" fill="white"/>
<path d="M4.60105 7.463L5.19305 7.033H4.46205L4.23605 6.338L4.01005 7.033H3.27905L3.87005 7.463L3.64405 8.158L4.23605 7.729L4.82705 8.158L4.60105 7.463Z" fill="white"/>
<path d="M7.58006 7.463L8.17206 7.033H7.44106L7.21506 6.338L6.98906 7.033H6.25806L6.84906 7.463L6.62306 8.158L7.21506 7.729L7.80606 8.158L7.58006 7.463Z" fill="white"/>
<path d="M10.5601 7.463L11.1511 7.033H10.4201L10.1941 6.338L9.96806 7.033H9.23706L9.82806 7.463L9.60306 8.158L10.1941 7.729L10.7851 8.158L10.5601 7.463Z" fill="white"/>
<path d="M6.06602 9.283L6.65802 8.854H5.92702L5.70102 8.158L5.47502 8.854H4.74402L5.33502 9.283L5.10902 9.979L5.70102 9.549L6.29202 9.979L6.06602 9.283Z" fill="white"/>
<path d="M9.04602 9.283L9.63702 8.854H8.90602L8.68002 8.158L8.45402 8.854H7.72302L8.31402 9.283L8.08902 9.979L8.68002 9.549L9.27102 9.979L9.04602 9.283Z" fill="white"/>
<path d="M12.025 9.283L12.616 8.854H11.885L11.659 8.158L11.433 8.854H10.702L11.294 9.283L11.068 9.979L11.659 9.549L12.251 9.979L12.025 9.283Z" fill="white"/>
<path d="M6.06602 12.924L6.65802 12.494H5.92702L5.70102 11.799L5.47502 12.494H4.74402L5.33502 12.924L5.10902 13.619L5.70102 13.19L6.29202 13.619L6.06602 12.924Z" fill="white"/>
<path d="M9.04602 12.924L9.63702 12.494H8.90602L8.68002 11.799L8.45402 12.494H7.72302L8.31402 12.924L8.08902 13.619L8.68002 13.19L9.27102 13.619L9.04602 12.924Z" fill="white"/>
<path d="M12.025 12.924L12.616 12.494H11.885L11.659 11.799L11.433 12.494H10.702L11.294 12.924L11.068 13.619L11.659 13.19L12.251 13.619L12.025 12.924Z" fill="white"/>
<path d="M13.5389 7.463L14.1299 7.033H13.3989L13.1729 6.338L12.9469 7.033H12.2159L12.8079 7.463L12.5819 8.158L13.1729 7.729L13.7649 8.158L13.5389 7.463Z" fill="white"/>
<path d="M4.60105 11.104L5.19305 10.674H4.46205L4.23605 9.979L4.01005 10.674H3.27905L3.87005 11.104L3.64405 11.799L4.23605 11.369L4.82705 11.799L4.60105 11.104Z" fill="white"/>
<path d="M7.58006 11.104L8.17206 10.674H7.44106L7.21506 9.979L6.98906 10.674H6.25806L6.84906 11.104L6.62306 11.799L7.21506 11.369L7.80606 11.799L7.58006 11.104Z" fill="white"/>
<path d="M10.5601 11.104L11.1511 10.674H10.4201L10.1941 9.979L9.96806 10.674H9.23706L9.82806 11.104L9.60306 11.799L10.1941 11.369L10.7851 11.799L10.5601 11.104Z" fill="white"/>
<path d="M13.5389 11.104L14.1299 10.674H13.3989L13.1729 9.979L12.9469 10.674H12.2159L12.8079 11.104L12.5819 11.799L13.1729 11.369L13.7649 11.799L13.5389 11.104Z" fill="white"/>
<path d="M4.60105 14.744L5.19305 14.315H4.46205L4.23605 13.619L4.01005 14.315H3.27905L3.87005 14.744L3.64405 15.44L4.23605 15.01L4.82705 15.44L4.60105 14.744Z" fill="white"/>
<path d="M7.58006 14.744L8.17206 14.315H7.44106L7.21506 13.619L6.98906 14.315H6.25806L6.84906 14.744L6.62306 15.44L7.21506 15.01L7.80606 15.44L7.58006 14.744Z" fill="white"/>
<path d="M10.5601 14.744L11.1511 14.315H10.4201L10.1941 13.619L9.96806 14.315H9.23706L9.82806 14.744L9.60306 15.44L10.1941 15.01L10.7851 15.44L10.5601 14.744Z" fill="white"/>
<path d="M13.5389 14.744L14.1299 14.315H13.3989L13.1729 13.619L12.9469 14.315H12.2159L12.8079 14.744L12.5819 15.44L13.1729 15.01L13.7649 15.44L13.5389 14.744Z" fill="white"/>
</svg>
